<?xml version="1.0" encoding="iso-8859-1"?>
<!-- Generator: Adobe Illustrator 16.0.0, SVG Export Plug-In . SVG Version: 6.00 Build 0)  -->
<!DOCTYPE svg PUBLIC "-//W3C//DTD SVG 1.1//EN" "http://www.w3.org/Graphics/SVG/1.1/DTD/svg11.dtd">
<svg version="1.1" id="Capa_1" xmlns="http://www.w3.org/2000/svg" xmlns:xlink="http://www.w3.org/1999/xlink" x="0px" y="0px"
	 width="427.35px" height="427.35px" viewBox="0 0 427.35 427.35" style="enable-background:new 0 0 427.35 427.35;"
	 xml:space="preserve">
<g>
	<g id="Layer_3_58_">
		<g>
			<path d="M410.575,156.86c-5.846-14.352-16.9-36.335-38.987-54.508c-26.215-21.57-64.392-32.504-113.478-32.504
				c-0.179,0-0.356,0-0.534,0c-48.587,0.078-94.276,21.972-132.127,63.314c-28.021,30.605-41.895,60.885-42.642,62.54
				c-18.43,0.067-30.627,0.108-33.179,0.108c-57.555,0-75.666,110.32,3.756,110.32c3.313,0,2.516,0.156,8.307,0.262
				c1.277-31.236,27.076-56.258,58.619-56.258c31.578,0,57.396,25.074,58.625,56.354c51.438,0,63.116,0,80.333,0
				c0.887-31.774,26.989-57.354,58.975-57.354c31.93,0,58,25.49,58.971,57.188C449.249,301.747,427.374,194.86,410.575,156.86z
				 M228.67,233.755h-21.123c-2.745,0-4.97-2.226-4.97-4.971c0-2.744,2.225-4.97,4.97-4.97h21.123c2.745,0,4.971,2.226,4.971,4.97
				C233.641,231.529,231.415,233.755,228.67,233.755z M104.95,195.76c14.353-26.264,65.307-105.771,152.658-105.912
				c0.175,0,0.344,0,0.518,0c9.64,0,18.537,0.438,26.766,1.248V195.76C224.333,196.012,153.073,195.578,104.95,195.76z
				 M302.498,154.479V93.571c54.445,10.122,73.43,38.861,83.313,60.555C366.795,154.193,339.191,154.324,302.498,154.479z"/>
			<path d="M120.31,260.136c-26.842,0-48.682,21.838-48.682,48.684c0,26.844,21.84,48.682,48.682,48.682
				c26.844,0,48.684-21.838,48.684-48.682C168.994,281.974,147.154,260.136,120.31,260.136z M120.31,334.378
				c-14.092,0-25.557-11.467-25.557-25.559c0-14.094,11.465-25.559,25.557-25.559c14.094,0,25.559,11.465,25.559,25.559
				C145.869,322.911,134.404,334.378,120.31,334.378z"/>
			<path d="M318.241,260.136c-26.842,0-48.682,21.838-48.682,48.684c0,26.844,21.84,48.682,48.682,48.682
				c26.844,0,48.684-21.838,48.684-48.682C366.925,281.974,345.085,260.136,318.241,260.136z M318.241,334.378
				c-14.092,0-25.557-11.467-25.557-25.559c0-14.094,11.465-25.559,25.557-25.559c14.094,0,25.559,11.465,25.559,25.559
				C343.8,322.911,332.335,334.378,318.241,334.378z"/>
		</g>
	</g>
</g>
<g>
</g>
<g>
</g>
<g>
</g>
<g>
</g>
<g>
</g>
<g>
</g>
<g>
</g>
<g>
</g>
<g>
</g>
<g>
</g>
<g>
</g>
<g>
</g>
<g>
</g>
<g>
</g>
<g>
</g>
</svg>
